# xmcd
#
# Track frame offsets: 
#        150
#        60030
#        113580
#        159342
#        216387
#
# Disc length: 3940 seconds
#
# Revision: 0
# Processed by: cddbd v1.5.2PL0 Copyright (c) Steve Scherf et al.
# Submitted via: ExactAudioCopy v0.95a5
#
DISCID=350f6205
DTITLE=Various Artist - 神秘真言
DYEAR=2007
DGENRE=A Cappella
TTITLE0=般若波罗密多心经
TTITLE1=观音灵感真言
TTITLE2=药师灌顶真言
TTITLE3=清净法身佛
TTITLE4=观音普门品
EXTD=
EXTT0=
EXTT1=
EXTT2=
EXTT3=
EXTT4=
PLAYORDER=
